# xmcd
#
# Track frame offsets: 
#        150
#        18062
#        37040
#        55782
#        73529
#        86931
#        99579
#        122560
#        146749
#        159653
#        183007
#        195500
#        216293
#        236052
#        259989
#        282844
#
# Disc length: 3989 seconds
#
# Revision: 0
# Processed by: cddbd v1.5.2PL0 Copyright (c) Steve Scherf et al.
# Submitted via: ExactAudioCopy v1.0b3
#
DISCID=e50f9310
DTITLE=合辑 - 草原歌典-第五辑
DYEAR=2006
DGENRE=
TTITLE0=雕花的马鞍
TTITLE1=草原情
TTITLE2=银色的毡房
TTITLE3=蓝天的诗
TTITLE4=银河
TTITLE5=乌尤黛
TTITLE6=赞歌
TTITLE7=天上的风
TTITLE8=小青马
TTITLE9=骏马与草原
TTITLE10=留有顶鬃的黄马
TTITLE11=蒙古人
TTITLE12=生这草原，恋这草原
TTITLE13=走马
TTITLE14=寄思草原
TTITLE15=八骏赞
EXTD=
EXTT0=
EXTT1=
EXTT2=
EXTT3=
EXTT4=
EXTT5=
EXTT6=
EXTT7=
EXTT8=
EXTT9=
EXTT10=
EXTT11=
EXTT12=
EXTT13=
EXTT14=
EXTT15=
PLAYORDER=
